{"title":"David Attenborough's The Hunt - S01E04 - Hunger At Sea","uid":15235192,"size":400126050,"categoryP":"video","categoryS":"tv_shows","magnet":"?xt=urn:btih:2a2ac1e27e26206b2afa845beffdfc8752f6d62d&amp;dn=David+Attenborough%27s+The+Hunt+-+S01E04+-+Hunger+At+Sea&amp;tr=udp%3A%2F%2Ftracker.leechers-paradise.org%3A6969&amp;tr=udp%3A%2F%2Fzer0day.ch%3A1337&amp;tr=udp%3A%2F%2Fopen.demonii.com%3A1337&amp;tr=udp%3A%2F%2Ftracker.coppersurfer.tk%3A6969&amp;tr=udp%3A%2F%2Fexodus.desync.com%3A6969","seeders":19,"leechers":5,"uploader":"Bullrout","files":1,"time":1467874800,"description":"David Attenborough's The Hunt - S01E04 - Hunger At Sea\r\n\r\nWe follow blue whales, sharks, sea lions, frigate birds, dolphins and albatrosses to reveal the strategies they use to hunt for prey in the big blue.\r\n\r\nComplete name : David Attenborough's The Hunt - S01E04 - Hunger AT Sea.mp4\r\nFormat : MPEG-4\r\nFormat profile : Base Media / Version 2\r\nCodec ID : mp42 (mp42/isom/avc1)\r\nFile size : 382 MiB\r\nDuration : 47mn 39s\r\nOverall bit rate mode : Variable\r\nOverall bit rate : 1 120 Kbps\r\n\r\nVideo\r\nID : 2\r\nFormat : AVC\r\nFormat/Info : Advanced Video Codec\r\nFormat profile :   \r\nFormat settings, CABAC : Yes\r\nFormat settings, ReFrames : 3 frames\r\nCodec ID : avc1\r\nCodec ID/Info : Advanced Video Coding\r\nDuration : 47mn 39s\r\nBit rate mode : Variable\r\nBit rate : 988 Kbps\r\nMaximum bit rate : 1 000 Kbps\r\nWidth : 720 pixels\r\nHeight : 404 pixels\r\nDisplay aspect ratio : 16:9\r\nOriginal display aspect ratio : 16:9\r\nFrame rate mode : Constant\r\nFrame rate : 25.000 fps\r\nStandard : PAL\r\nColor space : YUV\r\nChroma subsampling : 4:2:0\r\nBit depth : 8 bits\r\nScan type : Progressive\r\nBits/(Pixel*Frame) : 0.136\r\nStream size : 337 MiB (88%)\r\nWriting library : x264 core 112\r\nColor range : Limited\r\nColor primaries : BT.601 PAL\r\nTransfer characteristics : BT.470 System B, BT.470 System G\r\nMatrix coefficients : BT.601\r\n\r\nAudio\r\nID : 1\r\nFormat : AAC\r\nFormat/Info : Advanced Audio Codec\r\nFormat profile : LC\r\nCodec ID : 40\r\nDuration : 47mn 39s\r\nBit rate mode : Variable\r\nBit rate : 128 Kbps\r\nMaximum bit rate : 576 Kbps\r\nChannel(s) : 2 channels\r\nChannel positions : Front: L R\r\nSampling rate : 48.0 KHz\r\nFrame rate : 46.875 fps (1024 spf)\r\nCompression mode : Lossy\r\nStream size : 43.6 MiB (11%)","torrent":{"xt":"urn:btih:2a2ac1e27e26206b2afa845beffdfc8752f6d62d","amp;dn":"David+Attenborough%27s+The+Hunt+-+S01E04+-+Hunger+At+Sea","amp;tr":["udp%3A%2F%2Ftracker.leechers-paradise.org%3A6969","udp%3A%2F%2Fzer0day.ch%3A1337","udp%3A%2F%2Fopen.demonii.com%3A1337","udp%3A%2F%2Ftracker.coppersurfer.tk%3A6969","udp%3A%2F%2Fexodus.desync.com%3A6969"],"infoHash":"2a2ac1e27e26206b2afa845beffdfc8752f6d62d","infoHashBuffer":{"type":"Buffer","data":[42,42,193,226,126,38,32,107,42,250,132,91,239,253,252,135,82,246,214,45]},"announce":[],"urlList":[]}}